<svg id="svg" version="1.1" xmlns="http://www.w3.org/2000/svg" xmlns:xlink="http://www.w3.org/1999/xlink" width="400" height="348.8721804511278" viewBox="0, 0, 400,348.8721804511278"><g id="svgg"><path id="path0" d="M197.228 57.505 C 92.365 57.575,65.429 57.681,65.209 58.028 C 64.857 58.583,64.831 203.060,65.183 203.217 C 65.327 203.281,107.018 203.277,157.829 203.208 L 250.214 203.083 250.587 202.013 C 251.169 200.344,251.073 191.213,250.464 190.381 C 249.977 189.714,248.677 189.702,167.271 189.614 C 86.590 189.527,84.557 189.508,83.973 188.863 C 83.187 187.994,83.071 76.877,83.856 76.379 C 84.889 75.723,315.535 76.044,315.805 76.702 C 315.943 77.038,316.056 89.852,316.056 105.179 L 316.056 133.046 315.232 133.713 C 314.426 134.366,312.641 134.381,233.382 134.386 C 183.037 134.389,152.158 134.516,151.832 134.721 C 151.056 135.211,150.861 146.104,151.610 147.120 C 152.122 147.814,152.677 147.820,234.440 148.071 C 279.712 148.210,320.798 148.412,325.742 148.519 L 334.729 148.714 334.716 143.903 C 334.709 141.257,334.784 127.469,334.883 113.264 C 334.982 99.058,334.949 80.759,334.809 72.600 L 334.555 57.766 331.763 57.592 C 330.227 57.496,269.686 57.457,197.228 57.505 M118.740 135.515 C 118.594 135.947,118.496 138.342,118.523 140.838 C 118.597 147.729,118.560 147.480,119.563 147.937 C 120.655 148.435,134.999 148.492,135.777 148.001 C 136.342 147.644,136.756 138.257,136.311 135.884 L 136.094 134.729 127.550 134.729 L 119.005 134.729 118.740 135.515 M316.674 160.842 C 316.340 161.054,316.225 171.201,316.151 207.067 C 316.085 238.979,315.942 253.133,315.684 253.391 C 315.043 254.032,84.453 253.887,83.811 253.245 C 83.388 252.822,83.304 249.879,83.278 234.546 C 83.247 216.879,83.226 216.334,82.560 215.847 C 82.000 215.438,80.337 215.363,73.485 215.439 L 65.096 215.532 65.013 243.455 C 64.962 260.679,65.057 271.579,65.262 271.902 C 65.555 272.365,72.815 272.417,127.632 272.354 C 171.565 272.303,189.802 272.392,190.123 272.659 C 190.820 273.237,190.785 312.321,190.086 313.276 C 189.609 313.929,188.639 313.948,153.001 314.012 L 116.405 314.077 116.307 322.746 C 116.253 327.513,116.290 331.749,116.390 332.158 L 116.572 332.902 199.377 332.926 C 274.953 332.948,282.235 332.902,282.801 332.390 C 283.457 331.796,283.790 314.755,283.154 314.362 C 283.007 314.271,266.411 314.126,246.272 314.038 C 211.337 313.887,209.636 313.851,209.192 313.243 C 208.435 312.208,208.513 273.561,209.274 272.801 C 209.768 272.307,215.916 272.262,272.072 272.339 C 306.309 272.387,334.435 272.313,334.573 272.175 C 334.865 271.884,335.091 186.812,334.842 171.117 L 334.675 160.558 325.889 160.564 C 321.057 160.567,316.910 160.692,316.674 160.842 M265.499 190.516 C 264.785 191.305,264.646 200.759,265.327 202.252 L 265.732 203.141 274.157 203.141 C 280.245 203.141,282.699 203.025,283.002 202.723 C 283.294 202.430,283.421 200.548,283.421 196.496 L 283.421 190.688 282.532 190.283 C 280.889 189.535,266.205 189.736,265.499 190.516 " stroke="none" fill="#2e2c2c" fill-rule="evenodd"></path><path id="path1" d="M63.525 56.370 C 63.525 56.834,78.844 56.894,199.302 56.894 L 335.079 56.894 335.082 58.377 C 335.123 78.710,335.294 82.972,336.038 82.228 C 336.339 81.928,336.586 57.821,336.301 56.632 L 336.112 55.846 199.819 55.846 C 78.902 55.846,63.525 55.905,63.525 56.370 M85.476 78.519 L 84.444 79.551 84.543 133.265 C 84.626 178.171,84.721 187.073,85.121 187.556 C 85.564 188.089,91.778 188.133,167.912 188.133 L 250.223 188.133 251.202 188.975 L 252.182 189.817 252.356 195.694 C 252.565 202.722,252.497 203.382,251.501 204.035 C 250.793 204.498,91.063 204.760,80.454 204.315 C 71.469 203.938,63.509 204.023,63.604 204.495 C 63.683 204.892,65.289 204.965,72.688 204.911 L 81.675 204.846 81.675 209.055 L 81.675 213.264 72.600 213.264 C 64.660 213.264,63.525 213.331,63.525 213.801 C 63.525 214.274,64.750 214.334,73.704 214.295 C 82.023 214.258,83.932 214.338,84.152 214.731 C 84.300 214.996,84.471 223.328,84.532 233.248 C 84.634 250.012,84.686 251.329,85.266 251.908 C 86.089 252.731,313.385 252.898,314.206 252.076 C 314.770 251.512,314.751 253.133,314.797 202.054 C 314.839 155.762,314.687 158.346,317.283 159.689 C 318.093 160.108,319.920 160.209,326.628 160.209 L 334.965 160.209 335.196 174.084 C 335.493 191.957,335.493 237.293,335.196 257.534 L 334.965 273.298 272.366 273.298 L 209.767 273.298 209.857 292.932 C 209.936 310.111,210.013 312.565,210.471 312.565 C 210.929 312.565,211.006 310.169,211.085 293.455 L 211.175 274.346 273.623 274.346 L 336.070 274.346 336.292 273.335 C 336.414 272.780,336.409 266.929,336.280 260.334 C 335.924 242.114,335.914 199.301,336.260 178.282 L 336.570 159.530 335.627 159.172 C 335.079 158.963,331.256 158.813,326.504 158.813 L 318.325 158.813 318.325 154.467 L 318.325 150.121 327.022 150.017 C 331.806 149.960,335.850 149.782,336.010 149.622 C 336.453 149.179,336.136 83.667,335.689 83.218 C 335.545 83.073,335.414 87.968,335.398 94.095 C 335.342 115.315,335.071 148.815,334.954 148.932 C 334.323 149.563,151.255 148.967,150.619 148.332 C 149.257 146.972,149.415 134.704,150.812 133.307 C 151.475 132.644,152.897 132.632,232.426 132.637 C 319.408 132.641,314.373 132.734,314.666 131.118 C 315.171 128.333,314.672 78.167,314.136 77.828 C 313.809 77.622,270.993 77.496,200.060 77.492 L 86.508 77.487 85.476 78.519 M136.081 133.719 C 137.737 134.296,137.871 134.866,137.871 141.316 C 137.871 150.107,138.920 149.305,127.230 149.453 L 118.509 149.564 118.027 148.558 C 117.149 146.727,117.145 135.341,118.023 134.225 L 118.724 133.333 126.849 133.333 C 131.881 133.333,135.396 133.480,136.081 133.719 M284.105 189.246 C 285.146 190.363,285.201 202.590,284.170 203.862 C 283.193 205.069,265.841 204.980,264.814 203.763 C 263.951 202.739,264.047 189.375,264.921 188.823 C 266.169 188.036,283.330 188.414,284.105 189.246 M63.597 273.588 C 63.761 274.439,188.980 274.672,189.306 273.823 C 189.484 273.358,182.475 273.295,127.127 273.272 C 92.818 273.257,64.463 273.191,64.116 273.125 C 63.681 273.043,63.520 273.187,63.597 273.588 M114.834 312.914 C 114.834 313.202,115.122 313.438,115.474 313.438 C 115.826 313.438,116.114 313.202,116.114 312.914 C 116.114 312.627,115.826 312.391,115.474 312.391 C 115.122 312.391,114.834 312.627,114.834 312.914 M125.189 312.624 C 125.061 312.752,124.956 312.987,124.956 313.147 C 124.956 313.307,135.873 313.438,149.215 313.438 C 170.545 313.438,173.473 313.375,173.473 312.914 C 173.473 312.364,125.737 312.076,125.189 312.624 M227.225 312.912 C 227.225 313.376,230.417 313.438,254.305 313.438 C 275.813 313.438,281.355 313.348,281.239 313.002 C 280.999 312.282,227.225 312.193,227.225 312.912 M282.723 312.874 C 282.723 313.139,283.039 313.439,283.426 313.541 C 284.113 313.720,284.128 313.953,284.037 323.442 L 283.944 333.159 199.360 333.247 C 131.953 333.317,114.806 333.423,114.922 333.770 C 115.037 334.117,132.524 334.224,200.116 334.294 L 285.166 334.382 285.166 323.386 L 285.166 312.391 283.944 312.391 C 283.137 312.391,282.723 312.555,282.723 312.874 " stroke="none" fill="#d32c2b" fill-rule="evenodd"></path><path id="path2" d="M63.525 130.366 C 63.525 170.777,63.565 203.866,63.613 203.899 C 64.669 204.626,250.395 204.759,251.501 204.035 C 252.497 203.382,252.565 202.722,252.356 195.694 L 252.182 189.817 251.202 188.975 L 250.223 188.133 167.912 188.133 C 91.778 188.133,85.564 188.089,85.121 187.556 C 84.721 187.073,84.626 178.171,84.543 133.265 L 84.444 79.551 85.476 78.519 L 86.508 77.487 200.060 77.492 C 270.993 77.496,313.809 77.622,314.136 77.828 C 314.672 78.167,315.171 128.333,314.666 131.118 C 314.373 132.734,319.408 132.641,232.426 132.637 C 152.897 132.632,151.475 132.644,150.812 133.307 C 149.415 134.704,149.257 146.972,150.619 148.332 C 151.255 148.967,334.323 149.563,334.954 148.932 C 335.071 148.815,335.342 115.340,335.398 94.133 C 335.417 86.965,335.549 83.105,335.770 83.242 C 335.990 83.378,336.057 88.635,335.956 97.853 C 335.870 105.773,335.938 112.716,336.107 113.282 C 336.294 113.906,336.408 107.728,336.397 97.557 C 336.388 88.342,336.312 81.156,336.228 81.588 C 336.145 82.020,335.951 82.373,335.797 82.373 C 335.273 82.373,335.048 78.229,335.081 69.214 C 335.100 64.261,335.107 59.463,335.097 58.551 L 335.079 56.894 199.302 56.894 L 63.525 56.894 63.525 130.366 M334.809 72.600 C 334.949 80.759,334.982 99.058,334.883 113.264 C 334.784 127.469,334.709 141.257,334.716 143.903 L 334.729 148.714 325.742 148.519 C 320.798 148.412,279.712 148.210,234.440 148.071 C 152.677 147.820,152.122 147.814,151.610 147.120 C 150.861 146.104,151.056 135.211,151.832 134.721 C 152.158 134.516,183.037 134.389,233.382 134.386 C 312.641 134.381,314.426 134.366,315.232 133.713 L 316.056 133.046 316.056 105.179 C 316.056 89.852,315.943 77.038,315.805 76.702 C 315.535 76.044,84.889 75.723,83.856 76.379 C 83.071 76.877,83.187 187.994,83.973 188.863 C 84.557 189.508,86.590 189.527,167.271 189.614 C 248.677 189.702,249.977 189.714,250.464 190.381 C 251.073 191.213,251.169 200.344,250.587 202.013 L 250.214 203.083 157.829 203.208 C 107.018 203.277,65.327 203.281,65.183 203.217 C 64.831 203.060,64.857 58.583,65.209 58.028 C 65.487 57.590,324.940 57.165,331.763 57.592 L 334.555 57.766 334.809 72.600 M118.023 134.225 C 117.145 135.341,117.149 146.727,118.027 148.558 L 118.509 149.564 127.230 149.453 C 138.920 149.305,137.871 150.107,137.871 141.316 C 137.871 132.886,138.489 133.333,126.849 133.333 L 118.724 133.333 118.023 134.225 M136.311 135.884 C 136.756 138.257,136.342 147.644,135.777 148.001 C 134.999 148.492,120.655 148.435,119.563 147.937 C 118.560 147.480,118.597 147.729,118.523 140.838 C 118.496 138.342,118.594 135.947,118.740 135.515 L 119.005 134.729 127.550 134.729 L 136.094 134.729 136.311 135.884 M336.214 138.743 C 336.218 139.511,336.289 139.784,336.373 139.350 C 336.456 138.916,336.453 138.288,336.365 137.954 C 336.278 137.620,336.210 137.976,336.214 138.743 M315.555 160.085 C 314.836 160.999,314.834 161.121,314.797 202.054 C 314.751 253.133,314.770 251.512,314.206 252.076 C 313.438 252.845,86.096 252.738,85.326 251.968 C 84.583 251.225,84.555 250.515,84.508 231.393 C 84.477 218.941,84.366 215.025,84.031 214.639 C 83.667 214.219,81.951 214.152,73.558 214.234 L 63.521 214.332 63.611 243.728 C 63.681 266.936,63.792 273.133,64.136 273.168 C 64.376 273.192,92.693 273.231,127.063 273.255 C 188.730 273.298,189.549 273.307,189.192 273.974 C 188.956 274.415,188.831 281.179,188.831 293.520 L 188.831 312.391 181.152 312.391 C 174.559 312.391,173.473 312.465,173.473 312.914 C 173.473 313.375,170.541 313.438,149.177 313.438 C 127.521 313.438,124.904 313.380,125.086 312.904 C 125.265 312.439,124.699 312.383,120.674 312.468 C 117.206 312.541,116.078 312.674,116.143 313.002 C 116.191 313.242,115.916 313.438,115.532 313.438 C 114.851 313.438,114.834 313.671,114.834 323.386 L 114.834 333.335 199.389 333.247 L 283.944 333.159 284.037 323.442 C 284.128 313.953,284.113 313.720,283.426 313.541 C 283.039 313.439,282.723 313.139,282.723 312.874 C 282.723 312.593,282.362 312.391,281.861 312.391 C 281.238 312.391,281.055 312.536,281.200 312.914 C 281.378 313.377,278.248 313.438,254.313 313.438 C 230.108 313.438,227.225 313.381,227.225 312.898 C 227.225 312.425,226.169 312.365,218.586 312.410 L 209.948 312.461 209.857 292.880 L 209.767 273.298 272.366 273.298 L 334.965 273.298 335.196 257.534 C 335.493 237.293,335.493 191.957,335.196 174.084 L 334.965 160.209 326.628 160.209 C 319.920 160.209,318.093 160.108,317.283 159.689 C 316.324 159.193,316.242 159.212,315.555 160.085 M334.842 171.117 C 335.091 186.812,334.865 271.884,334.573 272.175 C 334.435 272.313,306.309 272.387,272.072 272.339 C 215.916 272.262,209.768 272.307,209.274 272.801 C 208.513 273.561,208.435 312.208,209.192 313.243 C 209.636 313.851,211.337 313.887,246.272 314.038 C 266.411 314.126,283.007 314.271,283.154 314.362 C 283.790 314.755,283.457 331.796,282.801 332.390 C 282.235 332.902,274.953 332.948,199.377 332.926 L 116.572 332.902 116.390 332.158 C 116.290 331.749,116.253 327.513,116.307 322.746 L 116.405 314.077 153.001 314.012 C 188.639 313.948,189.609 313.929,190.086 313.276 C 190.785 312.321,190.820 273.237,190.123 272.659 C 189.802 272.392,171.565 272.303,127.632 272.354 C 72.815 272.417,65.555 272.365,65.262 271.902 C 65.057 271.579,64.962 260.679,65.013 243.455 L 65.096 215.532 73.485 215.439 C 80.337 215.363,82.000 215.438,82.560 215.847 C 83.226 216.334,83.247 216.879,83.278 234.546 C 83.304 249.879,83.388 252.822,83.811 253.245 C 84.453 253.887,315.043 254.032,315.684 253.391 C 315.942 253.133,316.085 238.979,316.151 207.067 C 316.225 171.201,316.340 161.054,316.674 160.842 C 316.910 160.692,321.057 160.567,325.889 160.564 L 334.675 160.558 334.842 171.117 M336.008 192.757 C 335.713 209.863,335.781 246.955,336.113 249.913 C 336.253 251.161,336.392 235.807,336.421 215.794 C 336.451 195.781,336.422 179.407,336.357 179.407 C 336.292 179.407,336.135 185.414,336.008 192.757 M264.921 188.823 C 264.047 189.375,263.951 202.739,264.814 203.763 C 265.841 204.980,283.193 205.069,284.170 203.862 C 285.201 202.590,285.146 190.363,284.105 189.246 C 283.330 188.414,266.169 188.036,264.921 188.823 M282.532 190.283 L 283.421 190.688 283.421 196.496 C 283.421 200.548,283.294 202.430,283.002 202.723 C 282.699 203.025,280.245 203.141,274.157 203.141 L 265.732 203.141 265.327 202.252 C 264.646 200.759,264.785 191.305,265.499 190.516 C 266.205 189.736,280.889 189.535,282.532 190.283 M69.023 205.147 C 71.374 205.208,75.223 205.208,77.574 205.147 C 79.926 205.087,78.002 205.038,73.298 205.038 C 68.595 205.038,66.671 205.087,69.023 205.147 " stroke="none" fill="#863737" fill-rule="evenodd"></path></g></svg>